<svg xmlns="http://www.w3.org/2000/svg" version="1.1" xmlns:xlink="http://www.w3.org/1999/xlink" xmlns:svgjs="http://svgjs.dev/svgjs" width="128" height="128" viewBox="0 0 128 128"><g transform="matrix(0.8046875,0,0,0.8046875,12.760752631578946,28.335056300996484)"><svg viewBox="0 0 95 66" data-background-color="#ffffff" preserveAspectRatio="xMidYMid meet" height="88" width="128" xmlns="http://www.w3.org/2000/svg" xmlns:xlink="http://www.w3.org/1999/xlink"><g id="tight-bounds" transform="matrix(1,0,0,1,-0.24049999999999727,0.24111257382851647)"><svg viewBox="0 0 95.481 65.32910526315789" height="65.32910526315789" width="95.481"><g><svg viewBox="0 0 95.481 65.32910526315789" height="65.32910526315789" width="95.481"><g><svg viewBox="0 0 95.481 65.32910526315789" height="65.32910526315789" width="95.481"><g id="textblocktransform"><svg viewBox="0 0 95.481 65.32910526315789" height="65.32910526315789" width="95.481" id="textblock"><g><svg viewBox="0 0 95.481 65.32910526315789" height="65.32910526315789" width="95.481"><g><svg viewBox="0 0 95.481 65.32910526315789" height="65.32910526315789" width="95.481"><g><svg xmlns="http://www.w3.org/2000/svg" viewBox="10 14 76 52" x="0" y="0" height="65.32910526315789" width="95.481" class="icon-icon-0" data-fill-palette-color="accent" id="icon-0"><g fill="#34bc85" data-fill-palette-color="accent"><path d="M38 24V16A2 2 0 0 1 42 16V24A2 2 0 0 1 38 24M56 30A2 2 0 0 0 58 28V24A2 2 0 0 0 54 24V28A2 2 0 0 0 56 30M48 34A2 2 0 0 0 50 32V16A2 2 0 0 0 46 16V32A2 2 0 0 0 48 34M84 58H12A2 2 0 0 0 12 62H18A4 4 0 0 0 22 66H74A4 4 0 0 0 78 62H84A2 2 0 0 0 84 58M54 54A16 16 0 0 0 22 54zM58 54H74V42H58Z" fill="#34bc85" data-fill-palette-color="accent"></path></g></svg></g></svg></g></svg></g></svg></g></svg></g></svg></g><defs></defs></svg><rect width="95.481" height="65.32910526315789" fill="none" stroke="none" visibility="hidden"></rect></g></svg></g></svg>